<svg height="100%" width="100%" viewBox="0 0 1480 400" xmlns="http://www.w3.org/2000/svg"><defs><linearGradient id="gradient66">
      <stop offset="5%" stop-color="#00a1ff66"></stop>
      <stop offset="95%" stop-color="#e689fa66"></stop>
    </linearGradient></defs><path d="M 0,400 C 0,400 0,100 0,100 C 36.97897125902307,93.02263185864223 73.95794251804614,86.04526371728444 126,85 C 178.04205748195386,83.95473628271556 245.14720118683852,88.84157698950445 293,95 C 340.8527988131615,101.15842301049555 369.4532527345999,108.58842832469773 409,113 C 448.5467472654001,117.41157167530227 499.03978787476194,118.80470971170455 539,113 C 578.9602121252381,107.19529028829545 608.3875957663523,94.19273282848411 653,95 C 697.6124042336477,95.80726717151589 757.4098290598291,110.42435897435897 812,112 C 866.5901709401709,113.57564102564103 915.9730879943314,102.10983127407998 957,107 C 998.0269120056686,111.89016872592002 1030.697818962845,133.1363159293211 1074,125 C 1117.302181037155,116.86368407067889 1171.235636154289,79.34490500863558 1216,73 C 1260.764363845711,66.65509499136442 1296.359636419999,91.48406403613657 1342,99 C 1387.640363580001,106.51593596386343 1443.3258181657145,96.71883884681812 1468,94 C 1492.6741818342855,91.28116115318188 1486.3370909171426,95.64058057659093 1480,100 C 1480,100 1480,400 1480,400 Z" stroke="none" strokewidth="0" fill="url(#gradient66)"></path><defs><linearGradient id="gradient99">
      <stop offset="5%" stop-color="#00a1ff99"></stop>
      <stop offset="95%" stop-color="#e689fa99"></stop>
    </linearGradient></defs><path d="M 0,400 C 0,400 0,200 0,200 C 36.56151979856642,187.68372335781663 73.12303959713284,175.36744671563324 113,184 C 152.87696040286716,192.63255328436676 196.06936141003501,222.21393649528366 253,232 C 309.930638589965,241.78606350471634 380.59951476272715,231.77680730323218 426,221 C 471.40048523727285,210.22319269676782 491.5325795390562,198.67883429178767 522,199 C 552.4674204609438,199.32116570821233 593.2701670810478,211.5078555296172 648,205 C 702.7298329189522,198.4921444703828 771.3867521367523,173.2897435897436 820,166 C 868.6132478632477,158.7102564102564 897.1828243719433,169.3331701114085 941,170 C 984.8171756280567,170.6668298885915 1043.8819503754737,161.37757596462257 1093,176 C 1142.1180496245263,190.62242403537743 1181.2893741261616,229.15652603010122 1216,234 C 1250.7106258738384,238.84347396989878 1280.9605531198795,209.99631991497273 1334,207 C 1387.0394468801205,204.00368008502727 1462.8684133943202,226.8581943100078 1491,230 C 1519.1315866056798,233.1418056899922 1499.56579330284,216.5709028449961 1480,200 C 1480,200 1480,400 1480,400 Z" stroke="none" strokewidth="0" fill="url(#gradient99)"></path><defs><linearGradient id="gradientff">
      <stop offset="5%" stop-color="#00a1ffff"></stop>
      <stop offset="95%" stop-color="#e689faff"></stop>
    </linearGradient></defs><path d="M 0,400 C 0,400 0,300 0,300 C 31.525508486907455,308.8154273187952 63.05101697381491,317.63085463759035 115,325 C 166.9489830261851,332.36914536240965 239.32144059164784,338.2920087684337 290,326 C 340.67855940835216,313.7079912315663 369.66322065959366,283.201110288675 409,271 C 448.33677934040634,258.798889711325 498.0256767699773,264.9035500768661 541,266 C 583.9743232300227,267.0964499231339 620.2340722604972,263.18468940386043 663,274 C 705.7659277395028,284.81531059613957 755.038034188034,310.3576923076922 799,318 C 842.961965811966,325.6423076923078 881.6137909873663,315.3845413653704 924,311 C 966.3862090126337,306.6154586346296 1012.5068018625011,308.10414223082614 1054,296 C 1095.493198137499,283.89585776917386 1132.3590015626285,258.1988897113249 1185,265 C 1237.6409984373715,271.8011102886751 1306.0571918869846,311.10029892387405 1368,314 C 1429.9428081130154,316.89970107612595 1485.412230889433,283.39991459317883 1503,275 C 1520.587769110567,266.60008540682117 1500.2938845552835,283.30004270341055 1480,300 C 1480,300 1480,400 1480,400 Z" stroke="none" strokewidth="0" fill="url(#gradientff)"></path></svg>