<svg width="28" height="28" viewBox="0 0 28 28" fill="none" xmlns="http://www.w3.org/2000/svg">
<path d="M14.0273 21.1188C14.1387 21.1188 14.2522 21.1119 14.3663 21.0985C15.4612 20.967 16.391 20.2017 16.7341 19.147C16.76 19.0682 16.7226 18.9837 16.6471 18.949C16.5724 18.9142 16.482 18.9443 16.4398 19.015C16.4358 19.0217 16.0008 19.7244 14.3072 19.9531C14.0537 19.9872 13.807 20.005 13.5732 20.005C12.3867 20.0043 11.8579 19.557 11.8531 19.5529C11.7934 19.4999 11.7023 19.4984 11.641 19.5502C11.5793 19.6019 11.565 19.6918 11.6071 19.7605C12.1237 20.5979 13.0505 21.1188 14.0273 21.1188ZM23.1335 10.623C23.1185 10.623 23.1048 10.6257 23.0907 10.6257C22.0984 6.32964 18.3067 3.125 13.7608 3.125C9.0898 3.125 5.21113 6.50668 4.35153 10.9805C3.51565 11.1309 2.87939 11.8655 2.87939 12.7541V16.3101C2.87939 17.3068 3.67863 18.1149 4.66549 18.1149C5.22213 18.1149 5.71347 17.8521 6.04028 17.4484C6.83006 19.5373 8.43785 21.2215 10.4726 22.11C10.5887 22.1608 10.8123 22.0625 10.7473 21.9188C10.2763 21.5682 8.57538 19.766 8.20692 17.251C8.04518 16.1439 8.87434 15.0572 9.83998 14.8776C11.3902 14.5888 12.9324 14.2601 14.4826 13.9769C15.468 13.7971 16.1414 13.2566 16.5533 12.3565C16.6498 12.1461 16.7891 11.7206 16.853 11.1071C16.87 11.0159 16.9448 10.9458 17.0407 10.9458C17.1322 10.9458 17.1653 11.0441 17.2377 10.9989C17.8487 11.886 19.0605 13.8501 19.2345 15.9213C19.4343 18.2893 19.3228 19.911 17.5104 21.5702C17.5082 21.5723 17.5055 21.5749 17.5029 21.5771C17.4777 21.6042 17.4628 21.6397 17.4628 21.6785C17.4628 21.7295 17.4899 21.7731 17.5293 21.7996C17.5442 21.8058 17.5592 21.814 17.5742 21.8202C17.5864 21.8229 17.5981 21.8268 17.6102 21.8268C17.6225 21.8268 17.6334 21.8229 17.6443 21.8202C17.67 21.8066 17.6945 21.7908 17.7196 21.7772C19.5526 20.7674 20.9587 19.0812 21.6084 17.0528C21.8715 17.4436 22.2833 17.7248 22.7617 17.8229C21.9944 21.3128 18.8818 23.4969 15.0257 23.8286C14.7946 23.2553 14.2257 22.8481 13.5576 22.8481C12.6851 22.8481 11.9775 23.5393 11.9775 24.3909C11.9775 25.2426 12.685 25.9329 13.5576 25.9329C14.2611 25.9329 14.8503 25.4809 15.0548 24.86C19.5186 24.4971 23.0968 21.8438 23.8437 17.7215C24.5037 17.4456 24.9671 16.7982 24.9671 16.0425V12.4444C24.9671 11.4387 24.1461 10.623 23.1335 10.623ZM21.4867 11.6565C20.3225 8.5029 17.3057 6.25001 13.7568 6.25001C10.2226 6.25001 7.2167 8.48378 6.04169 11.6171C5.98316 11.5455 5.91467 11.4842 5.84735 11.4224C6.51261 7.60415 9.79859 4.70108 13.7608 4.70108C17.704 4.70108 20.9797 7.57562 21.6668 11.3672C21.5989 11.4584 21.5363 11.5537 21.4867 11.6565ZM10.4726 22.11C10.4716 22.1119 10.4719 22.1116 10.4726 22.11V22.11Z" fill="#333333"/>
</svg>
