<svg width="28" height="28" viewBox="0 0 28 28" fill="none" xmlns="http://www.w3.org/2000/svg">
<path d="M22.1675 16.6243C21.7494 15.2809 21.2685 14.1519 20.5289 12.3042C20.6439 7.45088 18.6264 3.52539 13.9797 3.52539C9.28085 3.52539 7.30773 7.52928 7.43317 12.3042C6.69097 14.1545 6.21271 15.2757 5.79457 16.6243C4.90601 19.4861 5.19349 20.67 5.41301 20.6961C5.88343 20.7536 7.24501 18.5426 7.24501 18.5426C7.24501 19.8232 7.90358 21.4932 9.3305 22.6981C8.64056 22.9098 7.09082 23.4795 7.45931 24.1041C7.75723 24.6085 12.5868 24.4256 13.9797 24.2688C15.3727 24.4256 20.2022 24.6085 20.5002 24.1041C20.8687 23.4821 19.3163 22.9098 18.629 22.6981C20.0559 21.4906 20.7145 19.8206 20.7145 18.5426C20.7145 18.5426 22.0761 20.7536 22.5465 20.6961C22.7686 20.6674 23.0561 19.4835 22.1675 16.6243Z" fill="#333333"/>
</svg>
